<!-- SPDX-FileCopyrightText: 2026 Numen Games S.L. -->
<!-- SPDX-License-Identifier: CC0-1.0 -->
<svg width="25mm" height="25mm" version="1.1" viewBox="0 0 25 25" xmlns="http://www.w3.org/2000/svg"><path d="M0,0H1V1H0zM1,0H2V1H1zM2,0H3V1H2zM3,0H4V1H3zM4,0H5V1H4zM5,0H6V1H5zM6,0H7V1H6zM8,0H9V1H8zM10,0H11V1H10zM11,0H12V1H11zM14,0H15V1H14zM18,0H19V1H18zM19,0H20V1H19zM20,0H21V1H20zM21,0H22V1H21zM22,0H23V1H22zM23,0H24V1H23zM24,0H25V1H24zM0,1H1V2H0zM6,1H7V2H6zM8,1H9V2H8zM9,1H10V2H9zM16,1H17V2H16zM18,1H19V2H18zM24,1H25V2H24zM0,2H1V3H0zM2,2H3V3H2zM3,2H4V3H3zM4,2H5V3H4zM6,2H7V3H6zM8,2H9V3H8zM10,2H11V3H10zM11,2H12V3H11zM12,2H13V3H12zM13,2H14V3H13zM15,2H16V3H15zM16,2H17V3H16zM18,2H19V3H18zM20,2H21V3H20zM21,2H22V3H21zM22,2H23V3H22zM24,2H25V3H24zM0,3H1V4H0zM2,3H3V4H2zM3,3H4V4H3zM4,3H5V4H4zM6,3H7V4H6zM11,3H12V4H11zM13,3H14V4H13zM15,3H16V4H15zM16,3H17V4H16zM18,3H19V4H18zM20,3H21V4H20zM21,3H22V4H21zM22,3H23V4H22zM24,3H25V4H24zM0,4H1V5H0zM2,4H3V5H2zM3,4H4V5H3zM4,4H5V5H4zM6,4H7V5H6zM8,4H9V5H8zM9,4H10V5H9zM11,4H12V5H11zM12,4H13V5H12zM13,4H14V5H13zM14,4H15V5H14zM16,4H17V5H16zM18,4H19V5H18zM20,4H21V5H20zM21,4H22V5H21zM22,4H23V5H22zM24,4H25V5H24zM0,5H1V6H0zM6,5H7V6H6zM9,5H10V6H9zM10,5H11V6H10zM12,5H13V6H12zM18,5H19V6H18zM24,5H25V6H24zM0,6H1V7H0zM1,6H2V7H1zM2,6H3V7H2zM3,6H4V7H3zM4,6H5V7H4zM5,6H6V7H5zM6,6H7V7H6zM8,6H9V7H8zM10,6H11V7H10zM12,6H13V7H12zM14,6H15V7H14zM16,6H17V7H16zM18,6H19V7H18zM19,6H20V7H19zM20,6H21V7H20zM21,6H22V7H21zM22,6H23V7H22zM23,6H24V7H23zM24,6H25V7H24zM9,7H10V8H9zM11,7H12V8H11zM12,7H13V8H12zM13,7H14V8H13zM16,7H17V8H16zM0,8H1V9H0zM3,8H4V9H3zM4,8H5V9H4zM5,8H6V9H5zM6,8H7V9H6zM7,8H8V9H7zM8,8H9V9H8zM9,8H10V9H9zM14,8H15V9H14zM16,8H17V9H16zM17,8H18V9H17zM20,8H21V9H20zM22,8H23V9H22zM23,8H24V9H23zM24,8H25V9H24zM1,9H2V10H1zM2,9H3V10H2zM11,9H12V10H11zM14,9H15V10H14zM15,9H16V10H15zM19,9H20V10H19zM20,9H21V10H20zM21,9H22V10H21zM22,9H23V10H22zM23,9H24V10H23zM3,10H4V11H3zM4,10H5V11H4zM6,10H7V11H6zM8,10H9V11H8zM9,10H10V11H9zM10,10H11V11H10zM14,10H15V11H14zM15,10H16V11H15zM16,10H17V11H16zM18,10H19V11H18zM20,10H21V11H20zM21,10H22V11H21zM24,10H25V11H24zM0,11H1V12H0zM1,11H2V12H1zM2,11H3V12H2zM3,11H4V12H3zM5,11H6V12H5zM12,11H13V12H12zM14,11H15V12H14zM18,11H19V12H18zM19,11H20V12H19zM21,11H22V12H21zM22,11H23V12H22zM23,11H24V12H23zM24,11H25V12H24zM1,12H2V13H1zM3,12H4V13H3zM4,12H5V13H4zM5,12H6V13H5zM6,12H7V13H6zM8,12H9V13H8zM11,12H12V13H11zM14,12H15V13H14zM15,12H16V13H15zM18,12H19V13H18zM19,12H20V13H19zM24,12H25V13H24zM0,13H1V14H0zM4,13H5V14H4zM7,13H8V14H7zM8,13H9V14H8zM9,13H10V14H9zM12,13H13V14H12zM14,13H15V14H14zM15,13H16V14H15zM16,13H17V14H16zM20,13H21V14H20zM23,13H24V14H23zM0,14H1V15H0zM1,14H2V15H1zM3,14H4V15H3zM6,14H7V15H6zM8,14H9V15H8zM9,14H10V15H9zM14,14H15V15H14zM15,14H16V15H15zM16,14H17V15H16zM17,14H18V15H17zM20,14H21V15H20zM21,14H22V15H21zM22,14H23V15H22zM23,14H24V15H23zM24,14H25V15H24zM0,15H1V16H0zM3,15H4V16H3zM4,15H5V16H4zM8,15H9V16H8zM9,15H10V16H9zM10,15H11V16H10zM12,15H13V16H12zM14,15H15V16H14zM15,15H16V16H15zM17,15H18V16H17zM18,15H19V16H18zM19,15H20V16H19zM21,15H22V16H21zM22,15H23V16H22zM24,15H25V16H24zM0,16H1V17H0zM3,16H4V17H3zM4,16H5V17H4zM6,16H7V17H6zM7,16H8V17H7zM9,16H10V17H9zM10,16H11V17H10zM11,16H12V17H11zM12,16H13V17H12zM13,16H14V17H13zM16,16H17V17H16zM17,16H18V17H17zM18,16H19V17H18zM19,16H20V17H19zM20,16H21V17H20zM22,16H23V17H22zM23,16H24V17H23zM8,17H9V18H8zM9,17H10V18H9zM11,17H12V18H11zM16,17H17V18H16zM20,17H21V18H20zM22,17H23V18H22zM23,17H24V18H23zM0,18H1V19H0zM1,18H2V19H1zM2,18H3V19H2zM3,18H4V19H3zM4,18H5V19H4zM5,18H6V19H5zM6,18H7V19H6zM8,18H9V19H8zM9,18H10V19H9zM10,18H11V19H10zM12,18H13V19H12zM14,18H15V19H14zM16,18H17V19H16zM18,18H19V19H18zM20,18H21V19H20zM24,18H25V19H24zM0,19H1V20H0zM6,19H7V20H6zM8,19H9V20H8zM10,19H11V20H10zM11,19H12V20H11zM13,19H14V20H13zM15,19H16V20H15zM16,19H17V20H16zM20,19H21V20H20zM24,19H25V20H24zM0,20H1V21H0zM2,20H3V21H2zM3,20H4V21H3zM4,20H5V21H4zM6,20H7V21H6zM8,20H9V21H8zM10,20H11V21H10zM11,20H12V21H11zM12,20H13V21H12zM14,20H15V21H14zM15,20H16V21H15zM16,20H17V21H16zM17,20H18V21H17zM18,20H19V21H18zM19,20H20V21H19zM20,20H21V21H20zM0,21H1V22H0zM2,21H3V22H2zM3,21H4V22H3zM4,21H5V22H4zM6,21H7V22H6zM8,21H9V22H8zM12,21H13V22H12zM13,21H14V22H13zM14,21H15V22H14zM17,21H18V22H17zM18,21H19V22H18zM23,21H24V22H23zM24,21H25V22H24zM0,22H1V23H0zM2,22H3V23H2zM3,22H4V23H3zM4,22H5V23H4zM6,22H7V23H6zM9,22H10V23H9zM10,22H11V23H10zM11,22H12V23H11zM13,22H14V23H13zM16,22H17V23H16zM17,22H18V23H17zM20,22H21V23H20zM21,22H22V23H21zM22,22H23V23H22zM23,22H24V23H23zM24,22H25V23H24zM0,23H1V24H0zM6,23H7V24H6zM9,23H10V24H9zM11,23H12V24H11zM14,23H15V24H14zM19,23H20V24H19zM20,23H21V24H20zM22,23H23V24H22zM23,23H24V24H23zM24,23H25V24H24zM0,24H1V25H0zM1,24H2V25H1zM2,24H3V25H2zM3,24H4V25H3zM4,24H5V25H4zM5,24H6V25H5zM6,24H7V25H6zM8,24H9V25H8zM9,24H10V25H9zM10,24H11V25H10zM12,24H13V25H12zM15,24H16V25H15zM16,24H17V25H16zM21,24H22V25H21zM24,24H25V25H24z" id="qr-path" fill="#14110F" fill-opacity="1" fill-rule="nonzero" stroke="none" /></svg>
